<svg width="264" height="150" viewBox="0 0 264 150" fill="none" xmlns="http://www.w3.org/2000/svg">
<g clip-path="url(#clip0_201_68)">
<path fill-rule="evenodd" clip-rule="evenodd" d="M263.273 0.0751953C263.447 0.0751953 263.613 0.144426 263.737 0.26761C263.859 0.3909 263.929 0.558101 263.929 0.732353C263.929 7.58897 263.929 65.9285 263.929 72.7851C263.929 72.9593 263.859 73.1265 263.737 73.2497C263.613 73.373 263.447 73.4422 263.273 73.4422C259.154 73.4422 236.9 73.4422 232.781 73.4422C232.607 73.4422 232.441 73.373 232.317 73.2497C232.194 73.1265 232.125 72.9593 232.125 72.7851C232.125 65.9285 232.125 7.58897 232.125 0.732353C232.125 0.558101 232.194 0.3909 232.317 0.26761C232.441 0.144426 232.607 0.0751953 232.781 0.0751953C236.9 0.0751953 259.154 0.0751953 263.273 0.0751953ZM252.375 19.6781C252.375 19.3151 252.082 19.0209 251.719 19.0209H242.94C242.578 19.0209 242.284 19.3151 242.284 19.6781V66.7595C242.284 67.1225 242.578 67.4167 242.94 67.4167H251.719C252.082 67.4167 252.375 67.1225 252.375 66.7595V19.6781Z" fill="white"/>
<path fill-rule="evenodd" clip-rule="evenodd" d="M105.561 73.4422C105.386 73.4422 105.219 73.373 105.097 73.2497C104.973 73.1265 104.904 72.9593 104.904 72.7851C104.904 65.9285 104.904 7.58897 104.904 0.732353C104.904 0.558101 104.973 0.3909 105.097 0.26761C105.219 0.144426 105.386 0.0751953 105.561 0.0751953C110.227 0.0751953 138.357 0.0751953 143.024 0.0751953C143.385 0.0751953 143.68 0.369426 143.68 0.732353C143.68 5.61098 143.68 36.1384 143.68 41.017C143.68 41.1913 143.749 41.3585 143.871 41.4818C143.994 41.605 144.162 41.6742 144.335 41.6742C147.386 41.6742 160.169 41.6742 163.219 41.6742C163.393 41.6742 163.561 41.7434 163.683 41.8667C163.806 41.9899 163.875 42.1571 163.875 42.3314C163.875 46.4502 163.875 68.6663 163.875 72.7851C163.875 73.148 163.582 73.4422 163.219 73.4422H105.561ZM127.397 8.00051C127.397 7.63748 127.103 7.34335 126.741 7.34335C124.457 7.34335 116.868 7.34335 114.584 7.34335C114.222 7.34335 113.928 7.63748 113.928 8.00051C113.928 12.1192 113.928 34.3354 113.928 38.4541C113.928 38.8171 114.222 39.1113 114.584 39.1113H126.741C127.103 39.1113 127.397 38.8171 127.397 38.4541C127.397 34.3354 127.397 12.1192 127.397 8.00051ZM143.688 50.1061C143.688 49.9318 143.62 49.7647 143.496 49.6414C143.374 49.5182 143.206 49.449 143.032 49.449C139.039 49.449 118.03 49.449 114.037 49.449C113.863 49.449 113.696 49.5182 113.573 49.6414C113.451 49.7647 113.381 49.9318 113.381 50.1061C113.381 52.9371 113.381 64.0765 113.381 66.9075C113.381 67.0818 113.451 67.249 113.573 67.3721C113.696 67.4954 113.863 67.5647 114.037 67.5647C118.03 67.5647 139.039 67.5647 143.032 67.5647C143.206 67.5647 143.374 67.4954 143.496 67.3721C143.62 67.249 143.688 67.0818 143.688 66.9075C143.688 64.0765 143.688 52.9371 143.688 50.1061Z" fill="white"/>
<path fill-rule="evenodd" clip-rule="evenodd" d="M210.715 0.732179C210.715 0.368754 210.423 0.0748901 210.06 0.0748901C205.064 0.0748901 173.076 0.0748901 168.081 0.0748901C167.718 0.0748901 167.425 0.368754 167.425 0.732179V72.7846C167.425 72.9591 167.496 73.1258 167.617 73.2493C167.739 73.3723 167.906 73.4418 168.081 73.4418C171.422 73.4418 186.521 73.4418 189.862 73.4418C190.225 73.4418 190.522 73.1474 190.522 72.7846V64.2777C190.522 63.9148 190.225 63.6204 189.862 63.6204C188.605 63.6204 185.852 63.6204 184.595 63.6204C184.232 63.6204 183.935 63.3265 183.935 62.9631C183.935 57.6292 183.935 21.4924 183.935 16.1586C183.935 15.9841 184.006 15.8167 184.127 15.6938C184.253 15.5702 184.42 15.5013 184.595 15.5013C186.424 15.5013 191.574 15.5013 193.408 15.5013C193.771 15.5013 194.063 15.7951 194.063 16.1586V37.4663C194.063 37.8292 194.356 38.1236 194.719 38.1236C197.384 38.1236 207.395 38.1236 210.06 38.1236C210.423 38.1236 210.715 37.8292 210.715 37.4663C210.715 32.8504 210.715 5.34756 210.715 0.732179Z" fill="#FF2F00"/>
<path fill-rule="evenodd" clip-rule="evenodd" d="M245.933 90.0036C245.933 89.6406 245.641 89.3464 245.277 89.3464C240.282 89.3464 208.294 89.3464 203.299 89.3464C202.935 89.3464 202.643 89.6406 202.643 90.0036C202.643 96.1288 202.643 143.146 202.643 149.271C202.643 149.445 202.714 149.612 202.835 149.736C202.956 149.859 203.123 149.928 203.299 149.928C206.64 149.928 221.738 149.928 225.08 149.928C225.443 149.928 225.739 149.634 225.739 149.271C225.739 147.749 225.739 143.997 225.739 142.475C225.739 142.112 225.443 141.818 225.08 141.818C223.822 141.818 221.07 141.818 219.813 141.818C219.449 141.818 219.153 141.524 219.153 141.161C219.153 136.419 219.153 107.484 219.153 102.742C219.153 102.379 219.449 102.085 219.813 102.085H228.625C228.989 102.085 229.281 102.379 229.281 102.742V113.953C229.281 114.316 229.574 114.61 229.937 114.61C232.602 114.61 242.613 114.61 245.277 114.61C245.641 114.61 245.933 114.316 245.933 113.953C245.933 110.403 245.933 93.5527 245.933 90.0036Z" fill="#FF2F00"/>
<path fill-rule="evenodd" clip-rule="evenodd" d="M214.252 52.249C214.252 51.8859 213.958 51.5918 213.596 51.5918C212.143 51.5918 208.665 51.5918 207.211 51.5918C206.849 51.5918 206.554 51.8859 206.554 52.249C206.554 56.5657 206.554 80.8219 206.554 85.1387C206.554 85.5016 206.261 85.7958 205.899 85.7958C199.114 85.7958 141.831 85.7958 135.045 85.7958C134.871 85.7958 134.705 85.8651 134.581 85.9884C134.459 86.1115 134.389 86.2787 134.389 86.453C134.389 92.7884 134.389 142.933 134.389 149.267C134.389 149.63 134.096 149.925 133.734 149.925C131.068 149.925 121.059 149.925 118.393 149.925C118.03 149.925 117.737 149.63 117.737 149.267C117.737 142.933 117.737 92.7884 117.737 86.453C117.737 86.0901 117.444 85.7958 117.081 85.7958C114.878 85.7958 107.762 85.7958 105.561 85.7958C105.386 85.7958 105.219 85.7266 105.097 85.6034C104.973 85.4801 104.904 85.313 104.904 85.1387C104.904 83.5065 104.904 79.282 104.904 77.6497C104.904 77.2868 105.198 76.9925 105.561 76.9925C113.23 76.9925 185.731 76.9925 193.4 76.9925C193.763 76.9925 194.056 76.6984 194.056 76.3354C194.056 71.9303 194.056 46.7365 194.056 42.3314C194.056 42.1571 194.125 41.9899 194.248 41.8667C194.372 41.7434 194.538 41.6742 194.712 41.6742C197.762 41.6742 210.545 41.6742 213.596 41.6742C213.77 41.6742 213.937 41.605 214.06 41.4818C214.183 41.3585 214.252 41.1913 214.252 41.017C214.252 36.1384 214.252 5.61098 214.252 0.732353C214.252 0.369426 214.546 0.0751953 214.907 0.0751953C217.299 0.0751953 225.534 0.0751953 227.926 0.0751953C228.289 0.0751953 228.582 0.369426 228.582 0.732353C228.582 7.58897 228.582 65.9284 228.582 72.7851C228.582 73.148 228.289 73.4422 227.926 73.4422C225.534 73.4422 217.299 73.4422 214.907 73.4422C214.546 73.4422 214.252 73.148 214.252 72.7851C214.252 69.5641 214.252 55.4699 214.252 52.249Z" fill="white"/>
<path fill-rule="evenodd" clip-rule="evenodd" d="M248.816 118.16C248.99 118.16 249.156 118.091 249.28 117.967C249.402 117.844 249.472 117.678 249.472 117.503V90.0034C249.472 89.6405 249.765 89.3463 250.127 89.3463C252.519 89.3463 260.754 89.3463 263.145 89.3463C263.507 89.3463 263.802 89.6405 263.802 90.0034C263.802 96.1287 263.802 143.145 263.802 149.27C263.802 149.634 263.507 149.929 263.145 149.929C260.754 149.929 252.519 149.929 250.127 149.929C249.765 149.929 249.472 149.634 249.472 149.27C249.472 146.05 249.472 131.955 249.472 128.734C249.472 128.372 249.178 128.077 248.816 128.077C247.362 128.077 243.883 128.077 242.43 128.077C242.068 128.077 241.774 128.372 241.774 128.734C241.774 131.955 241.774 146.05 241.774 149.27C241.774 149.446 241.705 149.612 241.582 149.735C241.46 149.859 241.292 149.929 241.119 149.929C238.959 149.929 232.09 149.929 229.932 149.929C229.569 149.929 229.276 149.634 229.276 149.27C229.276 145.152 229.276 122.936 229.276 118.817C229.276 118.643 229.344 118.476 229.468 118.353C229.59 118.229 229.758 118.16 229.932 118.16C232.982 118.16 245.765 118.16 248.816 118.16Z" fill="white"/>
<path fill-rule="evenodd" clip-rule="evenodd" d="M163.873 14.2003C163.873 13.8373 163.579 13.5432 163.217 13.5432C160.55 13.5432 150.541 13.5432 147.876 13.5432C147.514 13.5432 147.22 13.8373 147.22 14.2003C147.22 17.7147 147.22 34.2611 147.22 37.7755C147.22 38.1385 147.514 38.4326 147.876 38.4326C150.541 38.4326 160.55 38.4326 163.217 38.4326C163.579 38.4326 163.873 38.1385 163.873 37.7755C163.873 34.2611 163.873 17.7147 163.873 14.2003Z" fill="white"/>
<path fill-rule="evenodd" clip-rule="evenodd" d="M163.873 0.732329C163.873 0.36939 163.579 0.0751953 163.217 0.0751953C160.55 0.0751953 150.541 0.0751953 147.876 0.0751953C147.514 0.0751953 147.22 0.36939 147.22 0.732329C147.22 2.53349 147.22 7.53446 147.22 9.33562C147.22 9.69856 147.514 9.99275 147.876 9.99275C150.541 9.99275 160.55 9.99275 163.217 9.99275C163.579 9.99275 163.873 9.69856 163.873 9.33562C163.873 7.53446 163.873 2.53349 163.873 0.732329Z" fill="white"/>
<path fill-rule="evenodd" clip-rule="evenodd" d="M263.933 77.6499C263.933 77.4756 263.863 77.3084 263.742 77.1852C263.616 77.062 263.449 76.9927 263.277 76.9927C257.846 76.9927 220.367 76.9927 214.936 76.9927C214.759 76.9927 214.592 77.062 214.471 77.1852C214.345 77.3084 214.28 77.4756 214.28 77.6499C214.28 79.2821 214.28 83.5066 214.28 85.1389C214.28 85.3132 214.345 85.4802 214.471 85.6035C214.592 85.7268 214.759 85.796 214.936 85.796C220.367 85.796 257.846 85.796 263.277 85.796C263.449 85.796 263.616 85.7268 263.742 85.6035C263.863 85.4802 263.933 85.3132 263.933 85.1389C263.933 83.5066 263.933 79.2821 263.933 77.6499Z" fill="white"/>
<path fill-rule="evenodd" clip-rule="evenodd" d="M198.438 141.71C198.612 141.71 198.779 141.779 198.902 141.902C199.025 142.026 199.094 142.192 199.094 142.367C199.094 143.905 199.094 147.729 199.094 149.267C199.094 149.442 199.025 149.609 198.902 149.732C198.779 149.856 198.612 149.925 198.438 149.925C192.285 149.925 144.766 149.925 138.613 149.925C138.439 149.925 138.272 149.856 138.149 149.732C138.026 149.609 137.957 149.442 137.957 149.267C137.957 143.142 137.957 96.1285 137.957 90.0034C137.957 89.8291 138.026 89.662 138.149 89.5387C138.272 89.4155 138.439 89.3463 138.613 89.3463C144.766 89.3463 192.285 89.3463 198.438 89.3463C198.612 89.3463 198.779 89.4155 198.902 89.5387C199.025 89.662 199.094 89.8291 199.094 90.0034C199.094 94.6258 199.094 122.203 199.094 126.826C199.094 127 199.025 127.167 198.902 127.291C198.779 127.414 198.612 127.483 198.438 127.483C193.152 127.483 157.566 127.483 152.28 127.483C152.106 127.483 151.939 127.553 151.816 127.675C151.693 127.798 151.624 127.966 151.624 128.14C151.624 130.519 151.624 138.672 151.624 141.053C151.624 141.227 151.693 141.393 151.816 141.517C151.939 141.64 152.106 141.71 152.28 141.71C157.566 141.71 193.152 141.71 198.438 141.71ZM176.17 102.529C176.17 102.167 175.877 101.872 175.514 101.872C172.034 101.872 155.76 101.872 152.28 101.872C151.917 101.872 151.624 102.167 151.624 102.529C151.624 104.72 151.624 111.762 151.624 113.952C151.624 114.315 151.917 114.609 152.28 114.609C155.76 114.609 172.034 114.609 175.514 114.609C175.877 114.609 176.17 114.315 176.17 113.952C176.17 111.762 176.17 104.72 176.17 102.529Z" fill="white"/>
<path fill-rule="evenodd" clip-rule="evenodd" d="M-0.00402832 52.8419C0.413121 43.3894 1.87719 34.6524 6.12942 28.1183C15.5435 13.6611 30.7008 -0.000549316 45.8393 -0.000549316C60.9751 -0.000549316 76.7028 19.9525 86.1142 34.4097C94.3496 47.0572 96.1798 61.67 95.9995 80.0334C95.7895 101.288 85.8399 110.976 74.1409 123.455C64.3796 133.867 58.526 149.121 45.8393 149.864C28.9784 150.852 0.125017 119.394 0.125017 80.0334C0.125017 78.6171 0.111592 77.1857 0.0900616 75.7443C4.68678 78.0934 9.5447 79.8157 14.101 82.2687C16.3563 83.484 20.3932 85.2194 20.5735 88.5341C21.6339 96.1439 22.2986 103.819 22.5704 111.508C23.3563 115.391 25.9667 118.123 29.3496 119.558C29.5972 119.66 29.8745 119.597 30.0871 119.433C30.3293 119.243 30.4882 118.94 30.5447 118.626C31.6185 112.848 32.4771 107.025 33.123 101.174C33.1337 101.072 33.2038 100.956 33.3114 100.958C33.4164 100.959 33.4783 101.078 33.4783 101.179C33.6317 114.124 31.6965 126.688 31.0856 139.542C31.0587 140.018 31.3118 140.462 31.6751 140.72C32.8942 141.545 34.404 141.84 35.825 141.833C36.8154 141.83 37.8353 141.262 38.2309 140.252C42.6473 128.951 46.154 117.409 48.7619 105.46C48.7942 105.312 48.9155 105.137 49.077 105.175C49.2385 105.213 49.2922 105.429 49.2733 105.583C48.4579 112.373 47.3732 119.125 46.0222 125.816C45.8715 126.563 45.971 127.479 46.5066 128.035C46.9856 128.532 47.7044 128.493 48.2131 128.072C50.428 126.242 52.6131 124.366 54.7607 122.446C58.8084 112.432 62.2318 102.123 65.0092 91.6229C65.8839 88.0606 68.1743 85.1398 70.1389 82.2158C75.4165 74.3617 82.5887 66.9579 83.5872 56.8079C84.9006 43.4191 73.0456 34.7274 64.2262 27.9684C64.1805 27.928 64.1641 27.8522 64.1803 27.7918C64.1937 27.7395 64.2397 27.6966 64.2935 27.7211C66.024 28.5331 67.7086 29.4651 69.3449 30.4793C69.4203 30.5265 69.5145 30.5192 69.5791 30.4553C69.6572 30.3809 69.6841 30.2606 69.6787 30.1538C69.3046 22.5268 64.4844 13.5994 57.3848 10.9928C52.7396 9.28792 47.3975 8.88126 42.5425 8.46462C40.088 8.25401 37.6281 8.12241 35.1682 8.05742C31.2874 7.95494 27.5413 9.65843 24.2175 11.6491C16.507 16.2683 11.1619 24.0531 6.61906 32.0199C4.62482 35.5208 0.566346 41.852 3.5133 46.0068C3.54829 46.054 3.60213 46.0842 3.65864 46.0877C3.71516 46.0912 3.76913 46.068 3.8095 46.0246C7.38084 42.0748 11.5766 39.0132 16.3671 37.0619C13.439 38.3132 11.1889 41.0743 8.93898 43.3088C7.5126 44.7254 6.12396 46.1818 4.76486 47.6723C3.34924 49.2256 1.65919 50.9577 -0.00402832 52.8419ZM16.3671 37.0619C16.499 37.0053 16.6333 36.9516 16.7679 36.9015C16.6333 36.954 16.5016 37.0074 16.3671 37.0619ZM58.3375 56.9171C61.2468 56.6879 63.0203 60.4344 64.2906 62.589C65.9081 65.3361 67.4395 68.5013 67.4744 71.8279C67.5094 75.0054 65.5798 77.1911 63.3353 79.0116C62.0112 80.0873 60.5714 80.9265 58.8679 80.8809C56.4457 80.8162 53.1084 81.2755 51.4936 78.7975C49.5424 75.8047 49.8573 71.4676 49.7685 68.0336C49.7012 65.5168 50.0403 62.8924 51.1357 60.638C52.5001 57.8377 55.6489 57.129 58.3375 56.9171ZM26.6505 47.1858C30.7412 46.6492 35.9407 46.4734 38.7881 50.3334C41.0353 53.3815 42.0579 57.331 42.2678 61.1622C42.5477 66.2522 43.1695 73.1827 39.9884 77.5459C37.3079 81.224 31.9226 80.1741 28.2248 80.0822C25.6411 80.0177 23.3806 78.819 21.2679 77.3154C18.1702 75.1133 14.798 72.6078 14.6661 68.2254C14.5369 63.905 16.6871 59.7842 18.6195 56.165C20.4415 52.7526 22.4575 47.7359 26.6505 47.1858ZM46.2861 82.0648C47.8336 84.1234 48.5144 86.7689 48.7432 89.3631C48.7728 89.7506 48.6975 90.1559 48.5064 90.489C48.3476 90.7686 48.0893 91.007 47.7771 91.0523C45.2392 91.3996 42.6474 91.1874 40.166 90.5165C39.8942 90.4399 39.7111 90.1637 39.6438 89.8838C39.5658 89.5648 39.6089 89.2045 39.7758 88.9252C41.2371 86.4747 42.8196 84.0857 44.7089 81.9895C45.161 81.4866 45.877 81.523 46.2861 82.0648Z" fill="#FF2F00"/>
</g>
<defs>
<clipPath id="clip0_201_68">
<rect width="264" height="150" fill="white"/>
</clipPath>
</defs>
</svg>
