<svg width="430" height="45" viewBox="0 0 430 45" fill="none" xmlns="http://www.w3.org/2000/svg">
<g clip-path="url(#clip0_201_129)">
<path fill-rule="evenodd" clip-rule="evenodd" d="M286.338 17.5511C286.469 17.5273 286.655 17.4869 286.843 17.4198C286.92 17.3924 287 17.3737 287.082 17.3643C287.082 17.3643 290.144 16.9633 296.368 19.4333C296.408 19.4499 296.448 19.4686 296.486 19.4895C296.486 19.4895 298.991 20.859 301.051 22.4607C301.281 22.6222 303.423 24.115 305.746 25.323C307.113 26.034 308.536 26.673 309.621 26.7876C310 26.5446 310.627 26.2374 311.435 26.184C312.244 26.1299 313.26 26.3145 314.377 27.1641C315.634 27.6783 324.932 31.5061 327.605 33.3047L344.007 42.7021H545.834V44.8655H343.721C343.533 44.8655 343.348 44.8165 343.185 44.7227L326.498 35.1624C326.474 35.1487 326.451 35.1335 326.428 35.1177C323.697 33.2585 313.427 29.1126 313.427 29.1126C313.33 29.073 313.239 29.0196 313.157 28.954C311.738 27.8167 310.686 28.6785 310.686 28.6785C310.486 28.8653 310.223 28.9691 309.949 28.9691C308.898 28.9691 307.502 28.5357 306.073 27.8888C303.03 26.51 299.784 24.2131 299.784 24.2131C299.771 24.2037 299.758 24.1936 299.745 24.1835C297.99 22.8155 295.88 21.6256 295.509 21.4201C290.608 19.4838 287.943 19.4845 287.423 19.5076C285.973 19.9879 285.316 19.61 285.024 19.3864C284.77 19.1924 284.634 18.9761 284.56 18.8066C284.435 18.7215 284.049 18.4648 283.725 18.3069C282.338 17.6333 280.281 16.9886 279.792 16.8393C277.778 16.646 275.559 14.9571 275.559 14.9571C275.489 14.903 275.427 14.841 275.372 14.7718C275.096 14.4184 274.647 14.3621 274.233 14.3556C273.346 14.3427 272.504 14.6679 272.504 14.6679C272.381 14.7155 272.249 14.74 272.117 14.74C269.196 14.74 262.633 11.3953 262.633 11.3953C262.55 11.352 262.472 11.2972 262.402 11.2338C262.122 10.9778 261.782 10.9064 261.424 10.9302C260.905 10.9641 260.359 11.1732 259.824 11.4465C257.952 12.402 256.254 14.1847 256.254 14.1847C256.141 14.3037 256 14.3953 255.846 14.4523C253.762 15.216 251.531 14.802 249.61 13.977C246.915 12.8203 244.863 10.8905 244.863 10.8905C244.538 10.5862 244.434 10.1131 244.599 9.69987C244.687 9.47776 244.536 9.34579 244.403 9.25348C244.072 9.02343 243.687 8.9304 243.687 8.9304C243.591 8.90732 243.498 8.87199 243.412 8.82367C241.241 7.61429 240.39 5.30372 240.259 4.91141C240.079 4.91069 239.653 4.91645 239.382 4.97487C238.784 5.1054 238.204 5.32823 237.915 5.44795C237.137 6.35444 236.651 8.078 236.651 8.078C236.59 8.27848 236.474 8.45805 236.314 8.5929C235.547 9.24338 235.558 9.96886 235.558 9.96886L235.55 9.93497L234.507 11.2943L235.579 10.0857C235.726 11.334 235.314 12.0285 234.874 12.4431C234.454 12.8383 233.94 12.9869 233.573 13.041C232.089 14.0737 230.506 14.0888 229.119 13.6972C227.464 13.2299 226.118 12.154 225.696 11.7912C224.037 10.9633 223.059 9.27511 222.545 7.48449C221.927 5.32679 221.972 3.06669 221.996 2.49698C221.972 2.38665 221.939 2.27847 221.912 2.20059C221.791 2.24674 221.6 2.32535 221.483 2.39963C221.305 2.51285 221.135 2.64121 220.987 2.76453C220.659 3.03568 220.431 3.27943 220.431 3.27943C220.41 3.30179 220.388 3.3227 220.366 3.34362C213.069 9.97968 197.357 17.4162 197.357 17.4162C197.31 17.4386 197.262 17.4573 197.212 17.4725C185.924 20.9246 180.712 15.5355 180.712 15.5355C180.676 15.4994 180.643 15.4605 180.612 15.4193C179.241 13.5869 176.303 12.9083 175.957 12.8333C171.641 12.1518 163.936 7.26453 163.389 6.91477C162.747 6.55708 161.94 6.40564 161.042 6.37174C159.486 6.31405 157.682 6.62487 155.898 7.08713C151.627 8.19338 147.469 10.1816 146.862 10.4773C143.963 12.5398 141.968 12.2549 141.57 12.1691C137.299 11.7155 133.329 14.391 132.977 14.634C129.888 17.1047 123.082 17.6275 123.082 17.6275C123.058 17.6297 123.033 17.6304 123.008 17.6304C119.667 17.6304 117.931 19.4953 117.931 19.4953C117.907 19.5227 117.882 19.548 117.855 19.5725C115.36 21.8441 109.696 25.2573 109.696 25.2573C109.654 25.2826 109.61 25.3049 109.566 25.3244C107.34 26.2799 107.752 28.3114 107.752 28.3114C107.823 28.623 107.754 28.9504 107.562 29.2057C107.37 29.4609 107.075 29.6182 106.757 29.6347C105.593 29.696 103.699 30.6242 101.587 31.8263C96.2808 34.8458 89.8226 39.754 89.8226 39.754C89.8118 39.7626 89.801 39.7706 89.7895 39.7785C87.518 41.3715 77.1551 44.8114 77.1551 44.8114C77.0465 44.8475 76.9327 44.8655 76.8183 44.8655H-79.9999V42.7021H76.6463C77.9425 42.2744 86.506 39.4244 88.5357 38.0167C88.9128 37.7319 95.2695 32.9326 100.521 29.9448C102.43 28.8581 104.215 28.0244 105.56 27.6646C105.605 26.4299 106.116 24.4835 108.645 23.3665C109.24 23.0066 114.113 20.0419 116.368 18.0032C116.693 17.66 118.918 15.4799 122.973 15.4669C123.494 15.4316 129.084 15.0054 131.649 12.9278C131.667 12.9133 131.685 12.8996 131.704 12.8859C131.704 12.8859 136.615 9.42728 141.88 10.0273C141.927 10.0323 141.974 10.041 142.02 10.0525C142.02 10.0525 143.421 10.2948 145.675 8.6679C145.723 8.63329 145.774 8.60228 145.827 8.57631C145.827 8.57631 152.241 5.39747 157.806 4.46429C160.41 4.02727 162.839 4.11381 164.48 5.04771C164.498 5.0578 164.516 5.06862 164.534 5.08016C164.534 5.08016 172.133 10.0547 176.314 10.6994C176.335 10.703 176.355 10.7066 176.374 10.7109C176.374 10.7109 180.382 11.603 182.279 14.0419C182.746 14.458 187.295 18.2153 196.507 15.4258C197.637 14.8886 212.036 7.98208 218.888 1.76573C219.068 1.58112 219.859 0.793615 220.698 0.358759C221.405 -0.00758744 222.148 -0.108549 222.751 0.129432C223.344 0.363086 223.957 0.93424 224.148 2.27847C224.159 2.35275 224.162 2.42775 224.157 2.50203C224.157 2.50203 224.009 4.75347 224.62 6.88665C224.976 8.12559 225.568 9.35949 226.744 9.89458C226.852 9.94434 226.951 10.0107 227.037 10.0922C227.037 10.0922 227.854 10.8573 229.004 11.3614C230.016 11.8049 231.328 12.0703 232.509 11.14C232.147 11.4249 232.005 11.9088 232.155 12.3443C232.306 12.7806 232.716 13.0727 233.176 13.0727C233.176 13.0727 231.854 10.9266 233.225 10.9107C233.254 10.91 233.336 10.9215 233.395 10.8667C233.48 10.7874 233.47 10.6424 233.444 10.421C233.361 10.077 233.128 8.61886 234.686 7.14987C234.935 6.4417 235.617 4.68064 236.517 3.77847C236.608 3.68689 236.716 3.61261 236.834 3.55924C236.834 3.55924 238.944 2.63328 240.339 2.72847C241.362 2.79915 242.097 3.2852 242.32 4.26742C242.402 4.51621 242.952 6.03425 244.36 6.87439C244.627 6.95588 245.159 7.14554 245.635 7.47583C246.333 7.96189 246.911 8.69242 246.806 9.71502C247.483 10.2732 248.837 11.2915 250.46 11.9881C251.828 12.5758 253.4 12.9544 254.892 12.4922C255.563 11.8374 257.845 9.72728 260.02 9.02415C261.379 8.58497 262.697 8.65925 263.74 9.53184C264.215 9.77415 266.125 10.7297 268.146 11.515C269.52 12.0494 270.944 12.5232 271.95 12.5722C272.361 12.4388 273.295 12.1785 274.265 12.1929C275.266 12.2073 276.277 12.5131 276.976 13.3201C277.345 13.5992 278.768 14.6102 280.06 14.691C280.143 14.696 280.223 14.7105 280.302 14.7335C280.302 14.7335 282.956 15.529 284.668 16.3605C285.284 16.6605 285.79 16.9799 286.087 17.2641C286.185 17.3593 286.269 17.4552 286.338 17.5511ZM286.569 17.9968C286.582 18.0371 286.593 18.0782 286.601 18.1194C286.598 18.1071 286.592 18.0609 286.569 17.9968Z" fill="white" fill-opacity="0.13"/>
</g>
<defs>
<clipPath id="clip0_201_129">
<rect width="626" height="45" fill="white" transform="translate(-80)"/>
</clipPath>
</defs>
</svg>
