<?xml version="1.0" encoding="UTF-8" standalone="no"?>
<!DOCTYPE svg PUBLIC "-//W3C//DTD SVG 1.1//EN" "http://www.w3.org/Graphics/SVG/1.1/DTD/svg11.dtd">
<svg width="100%" height="100%" viewBox="0 0 188 188" version="1.1" xmlns="http://www.w3.org/2000/svg" xmlns:xlink="http://www.w3.org/1999/xlink" xml:space="preserve" xmlns:serif="http://www.serif.com/" style="fill-rule:evenodd;clip-rule:evenodd;stroke-linejoin:round;stroke-miterlimit:2;">
    <g transform="matrix(1,0,0,1,-468.131,-952.152)">
        <g id="Artboard2" transform="matrix(0.655775,0,0,0.638191,1565.55,654.292)">
            <rect x="-1673.46" y="466.727" width="285.983" height="293.863" style="fill:white;fill-opacity:0;"/>
            <clipPath id="_clip1">
                <rect x="-1673.46" y="466.727" width="285.983" height="293.863"/>
            </clipPath>
            <g clip-path="url(#_clip1)">
                <g transform="matrix(1.95284,0,0,2.40207,-10417.7,-102.454)">
                    <path d="M4581.38,236.954L4477.73,236.954L4477.73,359.291L4533.03,359.291L4533.03,342.914L4517.26,342.914L4517.26,262.677L4541.51,262.677L4541.51,287.97L4581.38,287.97L4581.38,236.954Z" style="fill:rgb(255,47,0);"/>
                </g>
                <g transform="matrix(1.52491,0,0,1.56693,-2387.32,-1025.23)">
                    <path d="M611.747,1041.35L611.747,952.152L655.685,952.152L655.685,1139.69L611.814,1139.69L611.814,1137.54L611.747,1137.54L611.747,1072.05L588.146,1072.05L588.146,1139.69L549.821,1139.69L549.821,1041.35L611.747,1041.35Z" style="fill:rgb(141,141,141);"/>
                </g>
            </g>
        </g>
    </g>
</svg>
